<svg xmlns="http://www.w3.org/2000/svg" xmlns:xlink="http://www.w3.org/1999/xlink" width="49" height="33.439" viewBox="0 0 49 33.439">
  <defs>
    <clipPath id="clip-path">
      <rect id="Rectangle_30801" data-name="Rectangle 30801" width="49" height="33.439" transform="translate(714 1707.998)" fill="#891111"/>
    </clipPath>
  </defs>
  <g id="Mask_Group_28671" data-name="Mask Group 28671" transform="translate(-714 -1707.998)" clip-path="url(#clip-path)">
    <g id="Group_32368" data-name="Group 32368" transform="translate(-5613 -7144.223)">
      <path id="iconfinder_48.Dashboard_290102" d="M49.888,37.977c.017,0-11.039-.037-11.039-.037V35.611h9.939c.022-.389.062-.771.062-1.164A21.951,21.951,0,0,0,27.071,12.328,21.951,21.951,0,0,0,5.292,34.447c0,.393.04.775.061,1.164H16.124v2.328l-11.87.036a1.155,1.155,0,0,1-1.146-1.164.089.089,0,0,1,0-.019c0-.007,0-.013,0-.019S3,35.221,3,34.447A24.26,24.26,0,0,1,27.071,10,24.26,24.26,0,0,1,51.142,34.447C51.142,35.221,51.461,38.024,49.888,37.977Z" transform="translate(6324.416 8842.646)" fill="#00629b" fill-rule="evenodd"/>
      <path id="iconfinder_48.Dashboard_290102_-_Outline" data-name="iconfinder_48.Dashboard_290102 - Outline" d="M49.795,38.321c-.241,0-10.924-.037-11.032-.037h-.414V35.111h9.966c.018-.254.035-.5.035-.742a21.8,21.8,0,0,0-6.257-15.341,21.278,21.278,0,0,0-6.791-4.65,21.13,21.13,0,0,0-16.63,0,21.278,21.278,0,0,0-6.791,4.65A21.8,21.8,0,0,0,5.623,34.369c0,.246.017.487.034.742h10.8v3.172h-.414l-11.455.035H4.169a1.576,1.576,0,0,1-1.562-1.587q0-.01,0-.019l0-.051c-.069-1.043-.1-1.837-.1-2.295A24.989,24.989,0,0,1,9.672,16.783a24.386,24.386,0,0,1,7.783-5.329,24.219,24.219,0,0,1,19.062,0A24.386,24.386,0,0,1,44.3,16.783a24.989,24.989,0,0,1,7.172,17.586c0,.085,0,.2.01.341.034.909.091,2.43-.622,3.183A2.53,2.53,0,0,1,49.795,38.321Zm-10.615-.881,10.594.036.042,0h0a.548.548,0,0,0,.446-.169c.468-.495.416-1.893.391-2.565-.005-.146-.01-.272-.01-.373a24.137,24.137,0,0,0-6.928-16.988,23.559,23.559,0,0,0-7.519-5.149,23.4,23.4,0,0,0-18.416,0,23.559,23.559,0,0,0-7.519,5.149A24.137,24.137,0,0,0,3.331,34.369c0,.306.018.944.1,2.238l0,.034a.458.458,0,0,1,.006.074v.042l0,.013a.737.737,0,0,0,.73.705H4.2l11.422-.035V35.956H4.875l-.021-.4c-.007-.124-.015-.251-.024-.374-.018-.262-.037-.534-.037-.813a22.649,22.649,0,0,1,6.5-15.939A22.1,22.1,0,0,1,18.348,13.6a21.948,21.948,0,0,1,17.277,0A22.1,22.1,0,0,1,42.68,18.43a22.649,22.649,0,0,1,6.5,15.939c0,.285-.02.561-.039.829-.008.118-.017.24-.024.359l-.022.4H39.179Z" transform="translate(6324.5 8842.723)" fill="#00629b"/>
      <g id="Group_32317" data-name="Group 32317" transform="translate(5290.618 -1990.441) rotate(30)">
        <path id="iconfinder_48.Dashboard_290102-2" data-name="iconfinder_48.Dashboard_290102" d="M49.888,37.977C49.9,37.975,51.461,38.024,49.888,37.977ZM19.647,22.955a1.265,1.265,0,0,1,1.306.058c10.057,7.474,12.124,10.911,12.162,10.975a5.628,5.628,0,0,1-2.177,7.836,6.065,6.065,0,0,1-8.121-2.1c-.04-.062-2.091-3.509-3.772-15.648A1.183,1.183,0,0,1,19.647,22.955Zm5.23,15.624A3.611,3.611,0,0,0,27.971,40.3a3.658,3.658,0,0,0,1.779-.462,3.434,3.434,0,0,0,1.662-2.088,3.3,3.3,0,0,0-.347-2.6c-.019-.029-1.8-2.778-9.241-8.554C23.292,35.694,24.864,38.555,24.877,38.578Z" transform="translate(6324.416 8842.646)" fill="#00629b" fill-rule="evenodd"/>
        <path id="iconfinder_48.Dashboard_290102_-_Outline-2" data-name="iconfinder_48.Dashboard_290102 - Outline" d="M27.886,42.938a6.426,6.426,0,0,1-5.51-3.072h0a16.8,16.8,0,0,1-1.313-3.389,84.457,84.457,0,0,1-2.516-12.42v-.009a1.607,1.607,0,0,1,.816-1.541,1.674,1.674,0,0,1,1.745.084l.005,0c10.073,7.485,12.187,10.955,12.273,11.1a5.952,5.952,0,0,1,.659,4.605,6.138,6.138,0,0,1-2.992,3.818A6.521,6.521,0,0,1,27.886,42.938Zm-4.805-3.52.006.009a5.594,5.594,0,0,0,4.8,2.666,5.7,5.7,0,0,0,2.767-.717,5.3,5.3,0,0,0,2.589-3.3,5.1,5.1,0,0,0-.567-3.95,16.951,16.951,0,0,0-2.281-2.648,86.061,86.061,0,0,0-9.768-8.2.858.858,0,0,0-.863-.031.761.761,0,0,0-.391.7C21.022,35.853,23.025,39.324,23.081,39.418Zm4.805,1.226a4.027,4.027,0,0,1-3.448-1.923l-.009-.016c-.066-.122-1.643-3.091-3.1-12.118l-.169-1.05.832.646c7.221,5.607,9.138,8.358,9.333,8.653l.011.017a3.72,3.72,0,0,1,.392,2.933,3.854,3.854,0,0,1-1.862,2.344A4.068,4.068,0,0,1,27.886,40.644Zm-2.734-2.355a3.2,3.2,0,0,0,2.734,1.51,3.246,3.246,0,0,0,1.579-.41,3.019,3.019,0,0,0,1.462-1.833,2.871,2.871,0,0,0-.3-2.256c-.118-.176-1.858-2.69-8.3-7.789C23.683,35.44,25.052,38.1,25.152,38.289Z" transform="translate(6324.5 8842.723)" fill="#00629b"/>
      </g>
    </g>
  </g>
</svg>
