<svg xmlns="http://www.w3.org/2000/svg" xmlns:xlink="http://www.w3.org/1999/xlink" width="26" height="26" viewBox="0 0 26 26"><defs><radialGradient id="a" cx="0.149" cy="1.003" r="1.278" gradientUnits="objectBoundingBox"><stop offset="0" stop-color="#ffb140"/><stop offset="0.256" stop-color="#ff5445"/><stop offset="0.599" stop-color="#fc2b82"/><stop offset="1" stop-color="#8e40b7"/></radialGradient></defs><g transform="translate(0)"><rect width="26" height="26" transform="translate(0)" fill="none"/><path d="M21.5,6.061a1.56,1.56,0,1,1-1.56-1.56A1.56,1.56,0,0,1,21.5,6.061ZM13,17.333A4.333,4.333,0,1,1,17.333,13,4.333,4.333,0,0,1,13,17.333ZM13,6.324A6.676,6.676,0,1,0,19.676,13,6.676,6.676,0,0,0,13,6.324Zm0-3.982c3.471,0,3.882.013,5.253.076a7.191,7.191,0,0,1,2.414.448,4.028,4.028,0,0,1,1.495.973,4.025,4.025,0,0,1,.973,1.495,7.2,7.2,0,0,1,.448,2.414c.063,1.371.076,1.782.076,5.253s-.013,3.882-.076,5.253a7.191,7.191,0,0,1-.448,2.414,4.306,4.306,0,0,1-2.467,2.467,7.2,7.2,0,0,1-2.414.448c-1.371.063-1.782.076-5.253.076s-3.883-.013-5.253-.076a7.191,7.191,0,0,1-2.414-.448,4.028,4.028,0,0,1-1.495-.973,4.028,4.028,0,0,1-.973-1.495,7.2,7.2,0,0,1-.448-2.414c-.063-1.371-.076-1.782-.076-5.253s.013-3.882.076-5.253a7.191,7.191,0,0,1,.448-2.414,4.028,4.028,0,0,1,.973-1.495,4.025,4.025,0,0,1,1.495-.973,7.2,7.2,0,0,1,2.414-.448C9.118,2.356,9.529,2.342,13,2.342ZM13,0C9.469,0,9.027.015,7.64.078a9.542,9.542,0,0,0-3.156.6,6.37,6.37,0,0,0-2.3,1.5,6.37,6.37,0,0,0-1.5,2.3,9.543,9.543,0,0,0-.6,3.156C.015,9.027,0,9.469,0,13s.015,3.973.078,5.36a9.543,9.543,0,0,0,.6,3.156,6.37,6.37,0,0,0,1.5,2.3,6.373,6.373,0,0,0,2.3,1.5,9.543,9.543,0,0,0,3.156.6C9.027,25.985,9.469,26,13,26s3.973-.015,5.36-.078a9.543,9.543,0,0,0,3.156-.6,6.648,6.648,0,0,0,3.8-3.8,9.543,9.543,0,0,0,.6-3.156C25.985,16.973,26,16.531,26,13s-.015-3.973-.078-5.36a9.543,9.543,0,0,0-.6-3.156,6.373,6.373,0,0,0-1.5-2.3,6.373,6.373,0,0,0-2.3-1.5,9.543,9.543,0,0,0-3.156-.6C16.973.015,16.531,0,13,0Z" transform="translate(0 0)" fill-rule="evenodd" fill="url(#a)"/></g></svg>