<svg xmlns="http://www.w3.org/2000/svg" xmlns:xlink="http://www.w3.org/1999/xlink" width="100" height="100" viewBox="0 0 100 100">
  <defs>
    <clipPath id="clip-Icon-Internet-mediumblue">
      <rect width="100" height="100"/>
    </clipPath>
  </defs>
  <g id="Icon-Internet-mediumblue" clip-path="url(#clip-Icon-Internet-mediumblue)">
    <g id="Icon-Internet-mediumblue-2" data-name="Icon-Internet-mediumblue">
      <rect id="Rectangle_4666" data-name="Rectangle 4666" width="100" height="100" fill="rgba(255,255,255,0)"/>
      <g id="smb-i-internet" transform="translate(21 21)">
        <g id="i-internet" transform="translate(8.507 14.693)">
          <path id="Path_10" data-name="Path 10" d="M408.223,211.784,402.07,205.3V178.168H359.229V205.3l-6.114,6.49a3.607,3.607,0,0,0-1.035,2.5,3.826,3.826,0,0,0,3.849,3.744h49.49a3.827,3.827,0,0,0,3.849-3.741A3.607,3.607,0,0,0,408.223,211.784ZM362,180.578h37.3v24.054H362Zm43.678,34.827-50.141-.035a1.009,1.009,0,0,1-.529-1.71l6.314-6.619h38.755c1.657,1.752,5.964,6.306,6.314,6.681A1.04,1.04,0,0,1,405.677,215.405Z" transform="translate(-360.373 -183.999)" fill="#00629b"/>
          <path id="Path_10_-_Outline" data-name="Path 10 - Outline" d="M405.419,218.287h-49.49a4.076,4.076,0,0,1-4.1-3.99,3.831,3.831,0,0,1,1.1-2.678l6.046-6.418V177.918H402.32V205.2l6.084,6.41a3.829,3.829,0,0,1,1.113,2.689,4.077,4.077,0,0,1-4.1,3.986Zm-45.94-39.869V205.4l-6.182,6.563a3.335,3.335,0,0,0-.967,2.327,3.576,3.576,0,0,0,3.6,3.5h49.49a3.577,3.577,0,0,0,3.6-3.5,3.333,3.333,0,0,0-.976-2.336L401.82,205.4V178.418Zm46.2,37.237-50.165-.035-.023,0a1.24,1.24,0,0,1-.966-.839,1.281,1.281,0,0,1,.3-1.287l6.389-6.7h38.97l.074.078c3.891,4.113,6.074,6.424,6.315,6.683a1.167,1.167,0,0,1,.2,1.3A1.285,1.285,0,0,1,405.677,215.655Zm-50.116-.535,50.116.035a.8.8,0,0,0,.641-.507.671.671,0,0,0-.111-.756c-.238-.256-2.395-2.538-6.238-6.6H361.428l-6.24,6.542a.787.787,0,0,0-.189.789A.734.734,0,0,0,355.561,215.121Zm43.99-10.239h-37.8V180.328h37.8Zm-37.3-.5h36.8V180.828h-36.8Z" transform="translate(-360.373 -183.999)" fill="#00629b"/>
          <path id="Path_10_-_Outline-2" data-name="Path 10 - Outline" d="M405.419,218.537h-49.49a4.326,4.326,0,0,1-4.349-4.236,4.079,4.079,0,0,1,1.171-2.854l5.977-6.346V177.668H402.57V205.1l6.015,6.338a4.077,4.077,0,0,1,1.182,2.865,4.327,4.327,0,0,1-4.349,4.232Zm-45.69-39.869V205.5l-6.25,6.635a3.087,3.087,0,0,0-.9,2.151,3.326,3.326,0,0,0,3.349,3.253h49.49a3.327,3.327,0,0,0,3.349-3.249,3.086,3.086,0,0,0-.907-2.159l-6.29-6.627V178.668Zm45.948,37.237-50.188-.035-.046-.009a1.486,1.486,0,0,1-1.157-1.008,1.548,1.548,0,0,1,.358-1.536l6.464-6.776h39.185l.148.156c3.891,4.114,6.075,6.425,6.316,6.684a1.411,1.411,0,0,1,.25,1.566A1.519,1.519,0,0,1,405.677,215.905Zm-50.087-1.035,50.087.035a.567.567,0,0,0,.412-.356.417.417,0,0,0-.065-.486c-.165-.177-1.373-1.457-6.163-6.522H361.535l-6.166,6.464a.54.54,0,0,0-.133.54A.488.488,0,0,0,355.59,214.871Zm44.211-9.739H361.5V180.078h38.3Zm-37.3-1h36.3V181.078H362.5Z" transform="translate(-360.373 -183.999)" fill="#00629b"/>
          <path id="Path_10_-_Outline_-_Outline" data-name="Path 10 - Outline - Outline" d="M405.419,218.787h-49.49a4.576,4.576,0,0,1-4.6-4.482,4.327,4.327,0,0,1,1.239-3.029L358.479,205V177.418H402.82V205l5.947,6.265a4.325,4.325,0,0,1,1.25,3.042,4.577,4.577,0,0,1-4.6,4.477Zm-46.44-40.869V205.2l-6.046,6.418a3.831,3.831,0,0,0-1.1,2.678,4.076,4.076,0,0,0,4.1,3.99h49.49a4.077,4.077,0,0,0,4.1-3.986,3.829,3.829,0,0,0-1.113-2.689l-6.084-6.41V177.918Zm46.44,39.869h-49.49a3.576,3.576,0,0,1-3.6-3.5,3.335,3.335,0,0,1,.967-2.327l6.182-6.562V178.418H401.82V205.4l6.221,6.555a3.334,3.334,0,0,1,.976,2.336,3.577,3.577,0,0,1-3.6,3.5Zm-45.44-38.869V205.6l-6.318,6.707a2.84,2.84,0,0,0-.831,1.975,3.076,3.076,0,0,0,3.1,3.007h49.49a3.077,3.077,0,0,0,3.1-3,2.838,2.838,0,0,0-.839-1.983l-6.358-6.7V178.918Zm45.7,37.237h0l-50.212-.035-.069-.013a1.733,1.733,0,0,1-1.348-1.176,1.8,1.8,0,0,1,.414-1.785L361,206.292h39.4l.222.235c3.892,4.114,6.076,6.426,6.318,6.686a1.655,1.655,0,0,1,.3,1.836A1.771,1.771,0,0,1,405.677,216.155Zm-50.165-.535,50.165.035a1.268,1.268,0,0,0,1.1-.807,1.167,1.167,0,0,0-.2-1.3c-.24-.258-2.424-2.569-6.315-6.683l-.074-.078h-38.97l-6.39,6.7a1.3,1.3,0,0,0-.3,1.286,1.24,1.24,0,0,0,.966.839Zm50.165-.465-50.119-.035-.031-.008a.737.737,0,0,1-.529-.49.785.785,0,0,1,.188-.788l6.241-6.543h38.541l.074.078c4.795,5.069,6,6.345,6.164,6.523a.664.664,0,0,1,.111.756A.8.8,0,0,1,405.677,215.155Zm-50.05-.535,50.042.035a.4.4,0,0,0,.19-.206c.053-.123.02-.174-.019-.215-.164-.176-1.356-1.44-6.087-6.442H361.642l-6.092,6.387a.292.292,0,0,0-.076.29A.235.235,0,0,0,355.627,214.621Zm44.424-9.239h-38.8V179.828h38.8Zm-38.3-.5h37.8V180.328h-37.8Zm37.3-.5h-36.8V180.828h36.8Zm-36.3-.5h35.8V181.328h-35.8Z" transform="translate(-360.373 -183.999)" fill="#00629b"/>
        </g>
      </g>
    </g>
  </g>
</svg>
