<svg xmlns="http://www.w3.org/2000/svg" xmlns:xlink="http://www.w3.org/1999/xlink" width="100" height="100" viewBox="0 0 100 100">
  <defs>
    <clipPath id="clip-icon-mobile-mediumblue">
      <rect width="100" height="100"/>
    </clipPath>
  </defs>
  <g id="icon-mobile-mediumblue" clip-path="url(#clip-icon-mobile-mediumblue)">
    <g id="icon-mobile-mediumblue-2" data-name="icon-mobile-mediumblue">
      <rect id="Rectangle_4666" data-name="Rectangle 4666" width="100" height="100" fill="rgba(255,255,255,0)"/>
      <g id="Group_14845" data-name="Group 14845">
        <g id="Group_8560" data-name="Group 8560" transform="translate(21 21)">
          <rect id="Rectangle_3297" data-name="Rectangle 3297" width="58" height="58" fill="#00629b" opacity="0"/>
          <path id="Shape" d="M31.667,58H6.333A6.291,6.291,0,0,1,0,51.786V6.214A6.291,6.291,0,0,1,6.333,0H31.667A6.291,6.291,0,0,1,38,6.214V51.786A6.291,6.291,0,0,1,31.667,58ZM4.222,49.715v2.071a2.1,2.1,0,0,0,2.111,2.071H31.667a2.1,2.1,0,0,0,2.111-2.071V49.715Zm0-37.286V45.571H33.778V12.429ZM6.333,4.142A2.1,2.1,0,0,0,4.222,6.214V8.285H33.778V6.214a2.1,2.1,0,0,0-2.111-2.071Z" transform="translate(10)" fill="#00629b"/>
        </g>
      </g>
    </g>
  </g>
</svg>
