<svg xmlns="http://www.w3.org/2000/svg" width="18.713" height="18.713" viewBox="0 0 18.713 18.713"><defs><style>.a{fill:#808080;}</style></defs><g transform="translate(-282 -17.441)"><path class="a" d="M6.614,16.971a1.871,1.871,0,1,0,1.871,1.871A1.869,1.869,0,0,0,6.614,16.971ZM1,2V3.871H2.871l3.368,7.1L4.977,13.265a1.809,1.809,0,0,0-.234.9,1.877,1.877,0,0,0,1.871,1.871H17.842V14.164H7.007a.232.232,0,0,1-.234-.234l.028-.112.842-1.525h6.971a1.862,1.862,0,0,0,1.637-.964L19.6,5.256a.914.914,0,0,0,.112-.449.938.938,0,0,0-.936-.936H4.939L4.06,2H1ZM15.971,16.971a1.871,1.871,0,1,0,1.871,1.871A1.869,1.869,0,0,0,15.971,16.971Z" transform="translate(281 15.441)"/></g></svg>