<svg id="Spectrum-logo" xmlns="http://www.w3.org/2000/svg" width="229.124" height="47.868" viewBox="0 0 229.124 47.868">
  <path id="Path_641" data-name="Path 641" d="M360.2,359.319q3.568,3.047,10.711,3.044,6.931,0,10.712-2.939A10.851,10.851,0,0,0,385.4,350.6a9.772,9.772,0,0,0-1.155-4.832,8.466,8.466,0,0,0-3.535-3.377,15.311,15.311,0,0,0-2.749-1.062c-1.289-.393-7.694-2.14-8.341-2.313-3.57-.869-5.835-2.058-5.852-4.17.185-4.082,3.991-4.41,6.092-4.41a8.64,8.64,0,0,1,5.146,1.366,4.731,4.731,0,0,1,2.008,4h7.128a11.67,11.67,0,0,0-3.781-8.51q-3.467-2.94-9.872-2.94-6.827,0-10.4,2.835a9.912,9.912,0,0,0-3.57,8.087c.011,4.406,2.1,7,3.99,8.19a24.929,24.929,0,0,0,7.141,2.415l2.839.618c4.924,1.2,7.75,2.72,7.661,5.157a3.942,3.942,0,0,1-1.68,3.36,9.063,9.063,0,0,1-4.933,1.155,9.935,9.935,0,0,1-5.777-1.469,5.765,5.765,0,0,1-2.415-4.412H356q.316,5.985,4.2,9.032" transform="translate(-356 -324.35)" fill="#00203e"/>
  <path id="Path_642" data-name="Path 642" d="M392.2,344.053c0-2.744-.5-8.549-6.119-8.549-5.334,0-5.91,5.664-5.91,8.549,0,7.3,4.151,8.232,6.121,8.232,5.1,0,5.908-5.412,5.908-8.232m-12.029,20.685a3.56,3.56,0,0,1-3.588,3.588h-3.588V342.048c.416-6.992,2.959-12.564,13.578-12.944a12.91,12.91,0,0,1,9.9,4.188c2.111,2.744,3.015,6.154,3.015,10.445q0,6.647-3.166,10.763a9.9,9.9,0,0,1-8.127,4.011,12.954,12.954,0,0,1-8.025-2.453c0,.24,0,8.679,0,8.679" transform="translate(-342.09 -320.458)" fill="#00203e"/>
  <path id="Path_643" data-name="Path 643" d="M401.608,352.16c-1.818-.093-5.283-.449-5.6-6.51l18.2,0c0-.184,0-2.18.005-2.184-.125-4.566-1.22-7.972-3.36-10.525q-3.467-3.78-9.767-3.781-5.984,0-9.345,3.884-3.257,3.78-3.255,10.5,0,7.037,3.36,10.818,3.358,3.884,9.343,3.884a13.366,13.366,0,0,0,8.192-2.415,11.489,11.489,0,0,0,4.421-6.73l-6.323,0c-.931,2.639-3.31,3.182-5.868,3.053m-.315-16.908c4.512-.06,5.214,3.781,5.355,5.67H395.938s-.091-5.57,5.355-5.67" transform="translate(-329.415 -320.412)" fill="#00203e"/>
  <path id="Path_644" data-name="Path 644" d="M421.942,349.116h6.9s-1.875,9.134-12.3,9.134-12.993-8.368-12.993-13.866.976-14.889,12.587-15.22c10.729-.158,12.5,9.136,12.5,9.136h-7.348s-.713-3.142-5.088-3.044-5.517,4.208-5.517,8.112.971,8.792,5.828,8.792c4.619.14,5.026-2.357,5.435-3.044" transform="translate(-317.085 -320.412)" fill="#00203e"/>
  <path id="Path_645" data-name="Path 645" d="M425.614,340.661h4.317l0-7.361h-4.306v-4.724A3.369,3.369,0,0,0,422.157,325h-3.779v30.873c0,3.22,1.247,5.146,3.952,5.146l3.286,0Z" transform="translate(-304.947 -323.815)" fill="#00203e"/>
  <path id="Path_646" data-name="Path 646" d="M432.27,357.414V343.029a6.3,6.3,0,0,1,1.469-4.621,6.144,6.144,0,0,1,4.515-1.469h2.417v-7.457a25.44,25.44,0,0,0-6.563.736,13.8,13.8,0,0,0-4.673,2.309,11.346,11.346,0,0,0-3.308,4.462,17.293,17.293,0,0,0-1.209,6.879v13.546Z" transform="translate(-299.594 -320.153)" fill="#00203e"/>
  <path id="Path_647" data-name="Path 647" d="M434.724,329.5h7.352v17.852a4.525,4.525,0,0,0,4.83,4.832,4.59,4.59,0,0,0,4.932-4.626V332.969s.249-3.464,3.437-3.464h3.813s-.005,16.422,0,16.581c-.051.9.964,11.884-12.18,11.84-13.022,0-12.1-11.109-12.182-11.765Z" transform="translate(-291.569 -320.13)" fill="#00203e"/>
  <path id="Path_648" data-name="Path 648" d="M473.738,357.81h-7.281V339.869c0-2.068-.853-4.853-4.963-4.853a4.554,4.554,0,0,0-4.852,4.853V357.81h-7.39V341.346c0-4.783,1.42-7.7,3.748-9.6,2.306-1.878,5.259-2.5,8.283-2.639a21.388,21.388,0,0,1,4.75.527,10.006,10.006,0,0,1,4.222,2.111A9.352,9.352,0,0,1,474,329.79a17.739,17.739,0,0,1,4.486-.686c9.01-.047,12.627,4.079,12.927,5.4l0,23.3h-4.172a3.533,3.533,0,0,1-3.586-3.588V339.869c.018-2.035-.695-4.853-4.963-4.853-4.221,0-4.959,3.164-4.959,4.853Z" transform="translate(-279.678 -320.459)" fill="#00203e"/>
  <path id="Path_649" data-name="Path 649" d="M473.565,332.068V355.35L488.9,343.712Z" transform="translate(-259.78 -318.033)" fill="#0099d8"/>
</svg>
